<svg id="Layer_1" data-name="Layer 1" xmlns="http://www.w3.org/2000/svg" viewBox="0 0 39.94 39.94"><defs><style>.cls-1{fill:#fff;}.cls-2{fill:#616f9f;}</style></defs><rect class="cls-1" width="39.94" height="39.94" rx="4.08"/><circle class="cls-2" cx="19.97" cy="19.97" r="6.58"/><path class="cls-2" d="M20,12A.93.93,0,0,1,19,11.1v-3a.93.93,0,0,1,1.85,0v3A.92.92,0,0,1,20,12Z"/><path class="cls-2" d="M20,32.76a.93.93,0,0,1-.93-.92v-3a.93.93,0,0,1,1.85,0v3A.92.92,0,0,1,20,32.76Z"/><path class="cls-2" d="M31.84,20.89h-3a.93.93,0,0,1,0-1.85h3a.93.93,0,0,1,0,1.85Z"/><path class="cls-2" d="M11.1,20.89h-3A.93.93,0,0,1,8.1,19h3a.93.93,0,1,1,0,1.85Z"/><path class="cls-2" d="M26.24,14.62a.93.93,0,0,1-.66-.27.92.92,0,0,1,0-1.3l2.13-2.13a.92.92,0,0,1,1.3,0,.93.93,0,0,1,0,1.31l-2.12,2.12A.92.92,0,0,1,26.24,14.62Z"/><path class="cls-2" d="M11.58,29.28a.93.93,0,0,1-.66-.27.92.92,0,0,1,0-1.3l2.13-2.13a.92.92,0,0,1,1.3,1.31L12.23,29A.92.92,0,0,1,11.58,29.28Z"/><path class="cls-2" d="M28.36,29.28a.91.91,0,0,1-.65-.27l-2.13-2.12a.93.93,0,0,1,1.31-1.31L29,27.71A.92.92,0,0,1,29,29,.91.91,0,0,1,28.36,29.28Z"/><path class="cls-2" d="M13.7,14.62a.91.91,0,0,1-.65-.27l-2.13-2.12a.93.93,0,1,1,1.31-1.31l2.12,2.13a.92.92,0,0,1-.65,1.57Z"/></svg>